<?xml version="1.0" encoding="UTF-8" standalone="no"?>
<!-- Created with Inkscape (http://www.inkscape.org/) -->

<svg
   xmlns:dc="http://purl.org/dc/elements/1.1/"
   xmlns:cc="http://creativecommons.org/ns#"
   xmlns:rdf="http://www.w3.org/1999/02/22-rdf-syntax-ns#"
   xmlns:svg="http://www.w3.org/2000/svg"
   xmlns="http://www.w3.org/2000/svg"
   xmlns:sodipodi="http://sodipodi.sourceforge.net/DTD/sodipodi-0.dtd"
   xmlns:inkscape="http://www.inkscape.org/namespaces/inkscape"
   width="427.34375"
   height="377.19675"
   id="svg2985"
   version="1.1"
   inkscape:version="0.48.4 r9939"
   sodipodi:docname="building_houseSmallsvg.svg"
   inkscape:export-filename="/home/pascal/Development/cpp/villages/images/building_house_small-png.png"
   inkscape:export-xdpi="113.12313"
   inkscape:export-ydpi="113.12313">
  <defs
     id="defs2987" />
  <sodipodi:namedview
     id="base"
     pagecolor="#ffffff"
     bordercolor="#00ffff"
     borderopacity="1"
     inkscape:pageopacity="0.0"
     inkscape:pageshadow="0"
     inkscape:zoom="1.1384031"
     inkscape:cx="301.01717"
     inkscape:cy="279.25723"
     inkscape:document-units="px"
     inkscape:current-layer="layer1"
     showgrid="false"
     inkscape:window-width="1920"
     inkscape:window-height="1025"
     inkscape:window-x="1280"
     inkscape:window-y="30"
     inkscape:window-maximized="1"
     fit-margin-top="10"
     fit-margin-left="10"
     fit-margin-right="10"
     fit-margin-bottom="10" />
  <metadata
     id="metadata2990">
    <rdf:RDF>
      <cc:Work
         rdf:about="">
        <dc:format>image/svg+xml</dc:format>
        <dc:type
           rdf:resource="http://purl.org/dc/dcmitype/StillImage" />
        <dc:title></dc:title>
      </cc:Work>
    </rdf:RDF>
  </metadata>
  <g
     inkscape:label="Layer 1"
     inkscape:groupmode="layer"
     id="layer1"
     style="display:inline"
     transform="translate(7.5625,-1056.397)">
    <path
       style="fill:none;stroke:#000000;stroke-width:1px;stroke-linecap:butt;stroke-linejoin:miter;stroke-opacity:1"
       d="M 22.5,1183.4336 9.6428571,1423.0764 385.35715,1421.2907 c 4.04762,-82.0238 -4.10736,-134.4035 5.35714,-237.5 z"
       id="path2995"
       inkscape:connector-curvature="0"
       sodipodi:nodetypes="ccccc" />
    <path
       style="fill:none;stroke:#000000;stroke-width:1px;stroke-linecap:butt;stroke-linejoin:miter;stroke-opacity:1"
       d="M 2.8571429,1202.3622 C 40.99879,1142.4095 97.32,1111.8114 163.57143,1091.6479"
       id="path3001"
       inkscape:connector-curvature="0" />
    <path
       style="fill:none;stroke:#000000;stroke-width:1px;stroke-linecap:butt;stroke-linejoin:miter;stroke-opacity:1"
       d="M 409.28571,1213.0765 C 391.63411,1134.4805 306.55766,1084.588 235.30696,1067.0494"
       id="path3003"
       inkscape:connector-curvature="0"
       sodipodi:nodetypes="cc" />
    <path
       style="fill:none;stroke:#000000;stroke-width:1px;stroke-linecap:butt;stroke-linejoin:miter;stroke-opacity:1"
       d="m 163.53617,1091.744 c 16.48482,-6.3275 64.15208,-26.8403 71.94438,-24.6716"
       id="path3005"
       inkscape:connector-curvature="0"
       sodipodi:nodetypes="cc" />
    <path
       style="fill:none;stroke:#000000;stroke-width:1px;stroke-linecap:butt;stroke-linejoin:miter;stroke-opacity:1"
       d="m 236.78572,1421.2907 c -28.53938,-286.4459 165.85437,-227.9244 106.17783,-0.8547"
       id="path3007"
       inkscape:connector-curvature="0"
       sodipodi:nodetypes="cc" />
    <path
       style="fill:none;stroke:#000000;stroke-width:1px;stroke-linecap:butt;stroke-linejoin:miter;stroke-opacity:1"
       d="m 60.609153,1241.7658 c -1.675934,22.1223 0.146253,47.2077 -6.565992,68.6904 41.852831,14.764 87.210539,8.6506 129.299529,5.5558 -0.29722,-27.0201 -3.53554,-52.507 -3.53554,-78.7919 -34.42264,4.1724 -82.854036,9.4373 -119.197997,4.5457 z"
       id="path3009"
       inkscape:connector-curvature="0" />
    <path
       style="fill:none;stroke:#000000;stroke-width:1px;stroke-linecap:butt;stroke-linejoin:miter;stroke-opacity:1"
       d="m 111.25,1244.3265 c -0.43944,8.0257 1.21541,16.185 2.5,23.5714 -17.708363,0.9497 -36.965919,0.222 -53.928571,1.25"
       id="path3011"
       inkscape:connector-curvature="0" />
    <path
       style="fill:none;stroke:#000000;stroke-width:1px;stroke-linecap:butt;stroke-linejoin:miter;stroke-opacity:1"
       d="m 60.357143,1272.7193 c 17.663023,0.9138 37.590029,2.4382 53.035717,1.25 -4.06527,13.3851 -3.13923,31.4517 -3.57143,45.7143"
       id="path3013"
       inkscape:connector-curvature="0"
       sodipodi:nodetypes="ccc" />
    <path
       style="fill:none;stroke:#000000;stroke-width:1px;stroke-linecap:butt;stroke-linejoin:miter;stroke-opacity:1"
       d="m 113.57143,1318.9693 c 2.4708,-14.6677 1.80869,-29.199 5.35714,-43.3928 20.03996,-0.7142 43.1316,-3.39 61.60714,-7.1428"
       id="path3015"
       inkscape:connector-curvature="0"
       sodipodi:nodetypes="ccc" />
    <path
       style="fill:none;stroke:#000000;stroke-width:1px;stroke-linecap:butt;stroke-linejoin:miter;stroke-opacity:1"
       d="m 118.83929,1243.255 c -0.11026,8.2631 1.69642,16.6657 1.69642,24.7322 19.65791,-1.7005 42.40103,-2.3722 60.08929,-6.5179"
       id="path3021"
       inkscape:connector-curvature="0" />
    <path
       sodipodi:type="arc"
       style="color:#000000;fill:#ffffff;fill-opacity:1;fill-rule:evenodd;stroke:#000000;stroke-width:1.02891183px;stroke-linecap:butt;stroke-linejoin:miter;stroke-miterlimit:4;stroke-opacity:1;stroke-dasharray:none;stroke-dashoffset:0;marker:none;visibility:visible;display:inline;overflow:visible;enable-background:accumulate"
       id="path3025"
       sodipodi:cx="251.51785"
       sodipodi:cy="1337.7194"
       sodipodi:rx="7.5"
       sodipodi:ry="5.2678571"
       d="m 259.01785,1337.7194 c 0,2.9093 -3.35786,5.2678 -7.5,5.2678 -4.14213,0 -7.5,-2.3585 -7.5,-5.2678 0,-2.9094 3.35787,-5.2679 7.5,-5.2679 4.14214,0 7.5,2.3585 7.5,5.2679 z" />
    <path
       style="fill:#ffff00;fill-opacity:1;stroke:#000000;stroke-width:0;stroke-miterlimit:4;stroke-opacity:1;stroke-dasharray:none"
       d="m 60.376866,1261.4045 c 0.320792,-9.5628 0.81794,-18.3858 1.049002,-18.6169 0.103839,-0.1038 1.921847,0 4.040017,0.2212 9.40228,1.0008 15.10598,1.235 29.65479,1.2177 l 15.446425,-0.018 0,3.2629 c 0,3.6161 0.70232,10.1767 1.71159,15.9885 l 0.66013,3.8014 -8.23943,0.2105 c -4.53169,0.1158 -14.105501,0.2954 -21.275144,0.399 -7.169643,0.1036 -15.341954,0.2895 -18.160691,0.4129 l -5.124976,0.2245 0.238287,-7.1034 z"
       id="path3795"
       inkscape:connector-curvature="0" />
    <path
       style="fill:#ffff00;fill-opacity:1;stroke:#000000;stroke-width:0;stroke-miterlimit:4;stroke-opacity:1;stroke-dasharray:none"
       d="m 121.1545,1265.4706 c -0.34088,-3.558 -1.30153,-15.1003 -1.52942,-18.3761 l -0.22805,-3.2782 1.21004,-0.1925 c 0.66552,-0.106 4.02253,-0.3681 7.46003,-0.5826 9.0832,-0.5667 23.38543,-1.9131 37.75354,-3.554 6.91622,-0.7898 12.70984,-1.436 12.8747,-1.436 0.28296,0 1.23941,22.5333 0.96807,22.8072 -0.2118,0.2138 -4.72786,1.1062 -9.27488,1.8327 -6.9576,1.1117 -16.23137,2.0558 -31.42857,3.1996 -7.85714,0.5913 -15.03705,1.1625 -15.95535,1.2694 l -1.66964,0.1943 -0.18047,-1.8838 z"
       id="path3797"
       inkscape:connector-curvature="0" />
    <path
       style="fill:#ffff00;fill-opacity:1;stroke:#000000;stroke-width:0;stroke-miterlimit:4;stroke-opacity:1;stroke-dasharray:none"
       d="m 114.6999,1316.0496 c 0.25354,-1.7473 0.72284,-6.1502 1.04289,-9.7841 1.55656,-17.6739 2.89552,-28.2557 3.75033,-29.6388 0.13804,-0.2233 3.59342,-0.5884 8.42189,-0.8898 15.62255,-0.9752 32.29231,-2.9316 45.50924,-5.341 3.63392,-0.6624 6.70407,-1.0994 6.82255,-0.971 0.11848,0.1284 0.4009,3.6084 0.6276,7.7334 0.2267,4.125 0.64032,11.5982 0.91916,16.6072 0.27883,5.0089 0.60934,11.9258 0.73447,15.3708 l 0.2275,6.2638 -17.61207,1.3367 c -26.61133,2.0196 -27.12927,2.0496 -39.43688,2.2775 l -11.46766,0.2124 0.46098,-3.1771 0,0 z"
       id="path3799"
       inkscape:connector-curvature="0" />
    <path
       style="fill:#ffff00;fill-opacity:1;stroke:#000000;stroke-width:0;stroke-miterlimit:4;stroke-opacity:1;stroke-dasharray:none"
       d="m 103.24567,1318.8818 c -13.744521,-0.8624 -24.205994,-2.3557 -34.999995,-4.9961 -3.686319,-0.9017 -12.282557,-3.3912 -13.272339,-3.8437 -0.03193,-0.015 0.328993,-1.473 0.802049,-3.2408 1.935518,-7.2332 3.539226,-18.9532 3.979316,-29.0811 0.132924,-3.059 0.297646,-5.3006 0.36605,-4.9815 0.145245,0.6777 0.88375,0.7466 17.053495,1.5895 5.892857,0.3072 16.228561,0.5776 22.968234,0.601 l 12.25394,0.043 -0.23393,0.9147 c -0.69423,2.7146 -1.3,6.1969 -1.78722,10.2739 -0.49816,4.1685 -1.19557,20.9547 -1.2248,29.4802 l -0.0119,3.4821 -2.05357,-0.064 c -1.12946,-0.035 -2.85714,-0.1148 -3.83929,-0.1764 z"
       id="path3801"
       inkscape:connector-curvature="0" />
    <path
       style="fill:#8e6a00;fill-opacity:1;stroke:#000000;stroke-width:0;stroke-miterlimit:4;stroke-opacity:1;stroke-dasharray:none"
       d="m 110.46116,1316.4862 c 0.007,-5.3341 0.34722,-19.9628 0.5326,-22.9018 0.49029,-7.7728 1.3501,-13.5984 2.7501,-18.6332 l 0.43925,-1.5796 -3.06818,0.1511 c -1.6875,0.083 -7.36729,0.1432 -12.621757,0.1337 -9.617984,-0.018 -14.296698,-0.1896 -31.25,-1.1495 -7.571093,-0.4288 -6.901238,-0.4329 -7.025662,0.043 -0.215601,0.8245 -0.324913,0.1068 -0.20429,-1.3413 l 0.125648,-1.5084 1.989652,-0.097 c 3.114935,-0.1517 18.382963,-0.4642 33.061081,-0.6767 13.253278,-0.1919 18.916898,-0.3603 19.125318,-0.5687 0.0592,-0.059 -0.13906,-1.4989 -0.44048,-3.1994 -1.48179,-8.36 -2.00949,-12.9002 -2.04411,-17.5869 l -0.024,-3.2451 -1.43338,-0.1529 c -1.32052,-0.1409 -1.13109,-0.1634 2.4059,-0.2858 2.1116,-0.073 4.20865,-0.1799 4.6601,-0.2375 l 0.82081,-0.1046 0.10695,3.189 c 0.0588,1.754 0.39498,6.0819 0.747,9.6176 0.35203,3.5357 0.69076,7.7436 0.75274,9.3509 l 0.11269,2.9223 1.35521,-0.1098 c 0.74537,-0.06 7.7436,-0.5936 15.55164,-1.1849 7.80804,-0.5913 15.88393,-1.2345 17.94643,-1.4293 8.2259,-0.7768 16.51869,-1.9244 22.34211,-3.0917 l 2.87782,-0.5768 0.12562,2.7467 c 0.0691,1.5106 0.0849,2.7873 0.0352,2.8371 -0.13027,0.1303 -5.76137,1.1933 -10.64858,2.0103 -14.88076,2.4875 -30.87112,4.1834 -47.22931,5.009 -2.06094,0.104 -3.79957,0.2466 -3.86362,0.3169 -0.20334,0.2232 -1.18812,5.018 -1.65832,8.0743 -0.66857,4.3455 -1.09092,8.3061 -1.79955,16.875 -0.75577,9.1388 -1.03607,11.888 -1.61052,15.7956 -0.23759,1.6161 -0.39899,2.9714 -0.35868,3.0118 0.0403,0.04 0.33854,0.1361 0.66273,0.2129 0.41128,0.097 0.009,0.1451 -1.33023,0.1578 l -1.91964,0.018 0.004,-2.8125 0,0 z"
       id="path3803"
       inkscape:connector-curvature="0" />
    <path
       style="fill:#8e6a00;fill-opacity:1;stroke:#000000;stroke-width:0;stroke-miterlimit:4;stroke-opacity:1;stroke-dasharray:none"
       d="m 237.43444,1420.3941 c -0.44149,-2.1226 -1.76451,-20.1794 -2.34586,-32.0167 -0.46086,-9.384 -0.46096,-33.8309 -1.6e-4,-42.0508 1.97663,-35.2606 7.72037,-62.1313 17.70052,-82.8075 17.72277,-36.7169 46.56412,-45.6949 70.55907,-21.9643 6.50815,6.4365 10.93876,12.8357 15.70182,22.6786 14.58337,30.1365 18.41033,72.4191 10.86109,120 -1.51843,9.5703 -4.08002,21.9787 -6.55987,31.7763 -0.6724,2.6566 -0.9486,4.359 -0.7292,4.4946 0.41064,0.2538 -52.59525,0.6928 -83.68779,0.6931 l -21.33248,3e-4 -0.16714,-0.8036 z m 17.21463,-77.241 c 5.99362,-1.7799 6.81029,-7.6403 1.43777,-10.3176 -1.50504,-0.75 -2.36405,-0.9236 -4.57029,-0.9236 -2.20624,0 -3.06526,0.1736 -4.5703,0.9236 -5.25093,2.6167 -4.66068,8.2054 1.07588,10.1869 2.32474,0.8031 4.23609,0.8407 6.62694,0.1307 z"
       id="path3805"
       inkscape:connector-curvature="0" />
    <path
       style="fill:none;stroke:#000000;stroke-width:1px;stroke-linecap:butt;stroke-linejoin:miter;stroke-opacity:1"
       d="m 17.361997,1183.0191 c 2.818375,-0.5193 5.984669,-0.098 8.838835,0.1578"
       id="path4411"
       inkscape:connector-curvature="0" />
    <path
       style="fill:none;stroke:#000000;stroke-width:1px;stroke-linecap:butt;stroke-linejoin:miter;stroke-opacity:1"
       d="m 390.71429,1183.6122 c 2.56409,-0.072 5.13883,-1.5522 6.51785,-2.2768"
       id="path4413"
       inkscape:connector-curvature="0" />
    <path
       style="fill:#ffff00;fill-opacity:1;stroke:#a3aa00;stroke-width:0;stroke-miterlimit:4;stroke-opacity:1;stroke-dasharray:none"
       d="m 195.83248,1182.9937 c -119.546441,-0.1307 -168.936722,-0.2642 -170.456615,-0.4608 -1.176972,-0.1522 -3.315,-0.2767 -4.751173,-0.2767 l -2.611224,0 2.075956,-2.5389 c 6.357031,-7.7748 18.555069,-20.3433 25.861674,-26.6471 27.079654,-23.3631 58.645692,-40.6982 100.383912,-55.1278 8.86769,-3.0657 23.0275,-7.4833 28.03173,-8.7454 16.22913,-4.093 41.61883,-7.7922 53.66435,-7.8187 l 5.05077,-0.011 6.9448,1.8525 c 37.57181,10.0217 66.54902,21.273 91.03999,35.3489 25.90857,14.8908 45.40954,32.0982 59.01122,52.0709 2.02935,2.9798 6.26989,9.8769 6.26989,10.1977 0,0.309 -2.5571,1.425 -4.39174,1.9167 -1.81549,0.4865 -2.56861,0.5102 -14.85964,0.4682 -7.12097,-0.024 -88.68973,-0.1271 -181.2639,-0.2284 l 0,0 z"
       id="path4415"
       inkscape:connector-curvature="0" />
    <path
       style="fill:#ffff00;fill-opacity:1;stroke:#a3aa00;stroke-width:0;stroke-miterlimit:4;stroke-opacity:1;stroke-dasharray:none"
       d="m 118.177,1182.7165 c -50.55813,-0.1125 -93.727978,-0.2905 -95.93299,-0.3955 l -4.009114,-0.1911 3.467565,-4.0406 c 9.135588,-10.6453 19.945869,-21.3906 28.928396,-28.7544 20.87411,-17.1125 44.680726,-31.0146 73.228253,-42.7626 13.31229,-5.4782 34.95899,-12.9199 48.61359,-16.7123 15.26387,-4.2393 43.46749,-8.3665 57.17309,-8.3665 3.83258,0 3.6665,-0.037 19.00835,4.2681 64.90094,18.2134 109.49092,43.7817 136.35203,78.1856 2.70471,3.4642 7.91604,11.1798 9.95978,14.7458 1.44762,2.5259 1.51144,2.4168 -2.08751,3.5696 l -2.34509,0.7512 -90.21624,-0.046 c -49.61892,-0.025 -131.58197,-0.1384 -182.14011,-0.2509 z"
       id="path4417"
       inkscape:connector-curvature="0" />
    <path
       style="fill:#e15700;fill-opacity:1;stroke:#a3aa00;stroke-width:0;stroke-miterlimit:4;stroke-opacity:1;stroke-dasharray:none"
       d="m 119.18716,1182.7509 c -49.169178,-0.092 -91.979818,-0.2581 -95.134758,-0.3681 l -5.736255,-0.2001 0.472387,-0.6577 c 1.659152,-2.3101 9.71251,-11.1981 15.666248,-17.2899 23.375124,-23.9172 54.641918,-43.8222 92.687328,-59.0062 12.28761,-4.904 32.03247,-11.6336 44.0679,-15.0195 15.93132,-4.4819 44.19312,-8.7146 58.19452,-8.7156 4.11675,-3e-4 3.70595,-0.089 17.69319,3.825 27.32728,7.6472 50.65453,16.3073 69.95307,25.9697 34.80973,17.4285 59.42937,38.0762 75.28487,63.139 1.18623,1.8751 2.53539,4.0795 2.99809,4.8987 0.81009,1.4343 0.82365,1.5024 0.36552,1.8373 -0.26166,0.1914 -1.53104,0.686 -2.82083,1.0991 l -2.34509,0.7512 -90.97386,-0.047 c -50.0356,-0.026 -131.20316,-0.123 -180.37233,-0.2155 z"
       id="path4423"
       inkscape:connector-curvature="0" />
    <path
       style="fill:#e15700;fill-opacity:1;stroke:#a3aa00;stroke-width:0;stroke-miterlimit:4;stroke-opacity:1;stroke-dasharray:none"
       d="m 10.460147,1420.084 c 0.110955,-1.3476 2.921221,-53.477 6.245036,-115.8431 3.323816,-62.366 6.148933,-114.8948 6.27804,-116.7307 l 0.234738,-3.3378 183.139499,0.1236 c 100.72673,0.068 183.24667,0.2307 183.37767,0.3617 0.131,0.131 -0.0919,4.0685 -0.49532,8.75 -1.40889,16.3485 -2.44911,33.4139 -3.30536,54.2261 -0.47253,11.4855 -0.58489,48.2777 -0.33367,109.2857 0.13675,33.2156 -0.23943,59.8693 -0.88843,62.9464 l -0.1695,0.8036 -20.35034,0 c -15.54094,0 -20.35034,-0.1008 -20.35034,-0.4267 0,-0.2347 0.80798,-3.773 1.79551,-7.8628 4.09585,-16.9628 6.85914,-33.5226 8.45005,-50.6391 0.91999,-9.8981 0.92782,-36.8531 0.0131,-45.1785 -2.71167,-24.6814 -8.15902,-43.748 -16.85177,-58.9841 -10.85947,-19.0336 -25.0349,-29.6735 -40.49363,-30.394 -10.57581,-0.4929 -19.82234,3.4311 -29.01633,12.3136 -9.54,9.2168 -16.78417,21.8686 -22.68598,39.6204 -11.22181,33.7537 -14.48543,79.9281 -9.55723,135.2173 0.32856,3.686 0.53283,6.7631 0.45395,6.838 -0.0789,0.075 -38.6345,0.3108 -85.67914,0.5243 -47.04464,0.2135 -97.792954,0.489 -112.774021,0.6122 l -27.238307,0.2241 0.201735,-2.4502 0,0 z M 142.05645,1319.7794 c 9.9027,-0.6191 41.06211,-3.0047 41.60715,-3.1855 0.56544,-0.1876 -1.4e-4,-15.5523 -1.42756,-38.7815 -0.70613,-11.4911 -1.38157,-25.5114 -1.50099,-31.1562 l -0.21713,-10.2633 -1.2843,0.1837 c -3.24283,0.4636 -27.36954,3.1019 -34.11679,3.7306 -32.43748,3.0225 -60.458269,3.4471 -80.342751,1.2171 -2.532089,-0.2839 -4.646429,-0.4719 -4.698525,-0.4177 -0.155375,0.1617 -0.832461,13.8615 -1.055114,21.3486 -0.660504,22.2107 -1.951561,34.2825 -4.778786,44.6834 l -1.030357,3.7905 5.22615,1.6454 c 14.516014,4.5703 28.859171,6.8882 48.797583,7.8859 5.1908,0.2598 26.41142,-0.1552 34.82142,-0.681 z"
       id="path4425"
       inkscape:connector-curvature="0" />
    <path
       style="fill:#dddf00;fill-opacity:1;stroke:#a3aa00;stroke-width:0;stroke-miterlimit:4;stroke-opacity:1;stroke-dasharray:none"
       d="m 88.957872,1182.4739 c -38.338151,-0.1122 -69.819373,-0.3176 -69.958274,-0.4565 -0.570808,-0.5708 15.385153,-17.8018 22.760696,-24.5794 30.772846,-28.2784 70.518166,-49.2078 124.403306,-65.5091 18.45892,-5.5842 52.33185,-24.3854 68.3207,-24.4185 l 19.08088,5.3534 6.53777,2.357 c 19.85795,7.159 8.55986,2.973 19.45301,7.3355 31.61878,12.6629 50.484,28.0048 71.83449,43.8314 12.25678,9.0856 26.97559,27.5461 35.11366,38.336 3.90371,5.1758 9.12377,15.0204 9.12377,15.856 0,0.1937 -0.84375,0.7351 -1.875,1.2033 l -1.875,0.8512 -116.60714,0.022 c -64.13393,0.012 -147.97472,-0.07 -186.312868,-0.1819 l 0,0 z"
       id="path4427"
       inkscape:connector-curvature="0"
       sodipodi:nodetypes="csssccsssssccsccc" />
  </g>
</svg>
