<?xml version="1.0" encoding="UTF-8" standalone="no"?>
<!-- Created with Inkscape (http://www.inkscape.org/) -->

<svg
   xmlns:dc="http://purl.org/dc/elements/1.1/"
   xmlns:cc="http://creativecommons.org/ns#"
   xmlns:rdf="http://www.w3.org/1999/02/22-rdf-syntax-ns#"
   xmlns:svg="http://www.w3.org/2000/svg"
   xmlns="http://www.w3.org/2000/svg"
   xmlns:sodipodi="http://sodipodi.sourceforge.net/DTD/sodipodi-0.dtd"
   xmlns:inkscape="http://www.inkscape.org/namespaces/inkscape"
   width="744.09448819"
   height="1052.3622047"
   id="svg2"
   version="1.1"
   inkscape:version="0.48.4 r9939"
   sodipodi:docname="character.svg"
   inkscape:export-filename="/home/pascal/Development/cpp/villages/images/character.png"
   inkscape:export-xdpi="37.22646"
   inkscape:export-ydpi="37.22646">
  <defs
     id="defs4" />
  <sodipodi:namedview
     id="base"
     pagecolor="#ffffff"
     bordercolor="#666666"
     borderopacity="1.0"
     inkscape:pageopacity="0.0"
     inkscape:pageshadow="2"
     inkscape:zoom="0.97232276"
     inkscape:cx="161.39169"
     inkscape:cy="153.26497"
     inkscape:document-units="px"
     inkscape:current-layer="layer1"
     showgrid="false"
     inkscape:snap-grids="true"
     inkscape:window-width="1920"
     inkscape:window-height="1025"
     inkscape:window-x="1280"
     inkscape:window-y="30"
     inkscape:window-maximized="1" />
  <metadata
     id="metadata7">
    <rdf:RDF>
      <cc:Work
         rdf:about="">
        <dc:format>image/svg+xml</dc:format>
        <dc:type
           rdf:resource="http://purl.org/dc/dcmitype/StillImage" />
        <dc:title></dc:title>
      </cc:Work>
    </rdf:RDF>
  </metadata>
  <g
     inkscape:label="Layer 1"
     inkscape:groupmode="layer"
     id="layer1">
    <path
       style="fill:#ffc99a;fill-opacity:1"
       d="m 357.73583,491.46072 c -63.3618,-8.75342 -102.61246,-32.22323 -122.22621,-73.0848 -7.1075,-14.80713 -11.52982,-31.01799 -14.21438,-52.10548 -0.93596,-7.35199 -1.21213,-15.20997 -1.22804,-34.94098 -0.0222,-27.52655 0.23504,-31.60314 5.30967,-84.1457 3.67525,-38.05333 5.50977,-61.9087 6.06906,-78.91953 l 0.45589,-13.8657 2.89619,0.69283 c 1.5929,0.38105 7.19186,0.70138 12.44212,0.71184 21.90978,0.0436 43.26658,-7.33211 59.89891,-20.6866 9.8376,-7.89885 10.81177,-9.21937 10.81177,-14.65574 0,-5.47653 1.04622,-6.91011 4.92994,-6.75524 4.31541,0.17208 7.79071,2.54085 18.23559,12.42936 19.45635,18.41995 25.60062,21.25454 46.13094,21.28193 11.24893,0.015 12.09866,-0.18374 23.84871,-5.57818 4.52407,-2.077 6.14405,-3.22427 7.28624,-5.16015 l 1.46875,-2.48934 13.92696,0.4858 c 8.45511,0.29493 15.87171,0.20371 18.87671,-0.23217 2.74468,-0.39813 10.49418,-2.75849 17.3954,-5.29835 6.84511,-2.5192 14.64162,-5.1889 17.32559,-5.93266 4.77105,-1.32213 4.93487,-1.32284 7.34231,-0.0317 1.3543,0.72632 3.58103,1.32527 4.94827,1.33101 1.36725,0.006 3.22496,0.40348 4.12825,0.88388 l 1.64234,0.87346 0.21055,29.34493 c 0.23023,32.08816 0.52754,36.50697 6.35136,94.39875 4.18517,41.60264 5.29055,55.97562 5.81882,75.66043 1.05358,39.25943 -4.08382,70.46128 -15.39656,93.51066 -20.08419,40.92097 -58.27537,63.53013 -122.16324,72.32057 -11.78246,1.62118 -10.45643,1.62372 -22.52191,-0.0431 l 0,10e-6 z m -0.54059,-25.43393 c 5.83363,-0.37647 13.15218,-1.19135 16.26345,-1.81084 37.03665,-7.37448 77.27845,-30.14915 90.08177,-50.98138 4.9715,-8.08911 4.60796,-14.96126 -1.05517,-19.94615 -6.12644,-5.39271 -15.60694,-7.39026 -34.93293,-7.36039 -14.80229,0.0229 -25.69264,1.0537 -47.37615,4.48438 -15.52556,2.4564 -21.0309,2.54663 -40.30509,0.66063 -25.95398,-2.53963 -41.81816,-2.5256 -51.08846,0.0452 l -2.65165,0.73534 0,4.59083 c 0,13.28973 3.25146,28.86682 8.10507,38.82976 8.59225,17.63719 24.80656,28.45334 45.99741,30.68368 3.10641,0.32695 5.80714,0.63023 6.00159,0.67395 0.19446,0.0437 5.12653,-0.22853 10.96016,-0.605 l 0,0 z m 19.62221,-115.6077 c 2.00566,-0.81463 1.44821,-1.97946 -0.70711,-1.47753 -4.61452,1.07461 -10.68561,1.26817 -13.24838,0.42239 -1.46828,-0.48458 -3.92384,-2.01418 -5.4568,-3.39913 -10.05977,-9.0884 -7.6553,-25.21107 5.63546,-37.78747 2.35998,-2.23312 3.99677,-4.24198 3.63733,-4.46413 -1.46307,-0.90423 -8.69397,5.97637 -12.32443,11.72739 -4.85462,7.69023 -6.12507,18.91148 -2.92028,25.7935 1.71734,3.68783 5.64067,7.67306 8.84575,8.98529 4.12744,1.68987 12.61717,1.79238 16.53846,0.19969 l 0,0 z m 67.70548,-98.03241 c 12.47939,-2.25614 23.41183,-9.478 28.11299,-18.57116 1.54329,-2.98509 1.86796,-4.5716 1.89481,-9.25918 0.0404,-7.05188 -1.36237,-10.37614 -6.90468,-16.36249 -4.49349,-4.85351 -12.3685,-9.27514 -20.2747,-11.38374 -6.46864,-1.72521 -22.62681,-1.69223 -28.99138,0.0592 -11.49682,3.16369 -21.54227,10.51988 -25.16165,18.42566 -3.14966,6.87975 -2.40316,15.06741 1.95543,21.44753 8.93988,13.08617 28.76665,19.36893 49.36918,15.64421 l 0,-10e-6 z m -126.21856,-1.74256 c 7.18993,-1.52556 15.82142,-6.01251 20.58548,-10.70106 5.51994,-5.43245 7.69246,-10.28541 7.67952,-17.15449 -0.0131,-6.92727 -1.75875,-10.74785 -7.56276,-16.55163 -7.33199,-7.33168 -17.49801,-11.41735 -30.39812,-12.21682 -15.12723,-0.93751 -28.80061,3.45173 -37.64141,12.08311 -14.53367,14.1894 -8.16132,33.71909 13.87174,42.51349 3.53516,1.41104 9.03349,2.60916 15.78788,3.44027 3.45954,0.42568 12.36838,-0.28635 17.67767,-1.41287 l 0,0 z"
       id="path4021"
       inkscape:connector-curvature="0" />
    <path
       style="fill:none;stroke:#000000;stroke-width:1px;stroke-linecap:butt;stroke-linejoin:miter;stroke-opacity:1"
       d="m 230,125.21932 c 11.3849,149.23367 -85.72847,346.07002 139.28571,368.57143"
       id="path3001"
       inkscape:connector-curvature="0" />
    <path
       style="fill:none;stroke:#000000;stroke-width:1px;stroke-linecap:butt;stroke-linejoin:miter;stroke-opacity:1"
       d="m 506.84494,125.93361 c -11.3849,149.23367 87.51419,345.35573 -137.5,367.85714"
       id="path3001-0"
       inkscape:connector-curvature="0"
       sodipodi:nodetypes="cc" />
    <path
       sodipodi:type="arc"
       style="fill:#ffffff;fill-rule:evenodd;stroke:#000000;stroke-width:1px;stroke-linecap:butt;stroke-linejoin:miter;stroke-opacity:1"
       id="path3809"
       sodipodi:cx="306.00046"
       sodipodi:cy="195.52554"
       sodipodi:rx="41.057243"
       sodipodi:ry="28.461048"
       d="m 347.0577,195.52554 a 41.057243,28.461048 0 1 1 -82.11449,0 41.057243,28.461048 0 1 1 82.11449,0 z"
       transform="translate(-1.0251263,27.455844)" />
    <path
       sodipodi:type="arc"
       style="fill:#ffffff;fill-rule:evenodd;stroke:#000000;stroke-width:1px;stroke-linecap:butt;stroke-linejoin:miter;stroke-opacity:1"
       id="path3809-5"
       sodipodi:cx="306.00046"
       sodipodi:cy="195.52554"
       sodipodi:rx="41.057243"
       sodipodi:ry="28.461048"
       d="m 347.0577,195.52554 a 41.057243,28.461048 0 1 1 -82.11449,0 41.057243,28.461048 0 1 1 82.11449,0 z"
       transform="translate(126.99954,28.836639)" />
    <path
       style="fill:none;stroke:#000000;stroke-width:1px;stroke-linecap:butt;stroke-linejoin:miter;stroke-opacity:1"
       d="m 366.5,303.86218 c -27.91829,20.13569 -17.13895,55.231 11,45.5"
       id="path3833"
       inkscape:connector-curvature="0"
       sodipodi:nodetypes="cc" />
    <path
       style="fill:none;stroke:#000000;stroke-width:1px;stroke-linecap:butt;stroke-linejoin:miter;stroke-opacity:1"
       d="m 287.02208,392.56561 c 24.57858,-7.73777 64.72242,3.73341 83.47792,0.29657 257.57846,-47.19979 -86.17553,185.55564 -83.47792,-0.29657 z"
       id="path3835"
       inkscape:connector-curvature="0"
       sodipodi:nodetypes="csc" />
    <path
       style="fill:none;stroke:#000000;stroke-width:1px;stroke-linecap:butt;stroke-linejoin:miter;stroke-opacity:1"
       d="m 330.5,487.86218 c -5.54426,21.41225 -6.13675,23.51208 -0.25,43.25"
       id="path3837"
       inkscape:connector-curvature="0"
       sodipodi:nodetypes="cc" />
    <path
       style="fill:none;stroke:#000000;stroke-width:1px;stroke-linecap:butt;stroke-linejoin:miter;stroke-opacity:1"
       d="m 401.33145,488.61218 c 8.79426,25.16225 7.63675,21.76208 1.75,41.5"
       id="path3837-4"
       inkscape:connector-curvature="0"
       sodipodi:nodetypes="cc" />
    <path
       style="fill:none;stroke:#000000;stroke-width:1.62204123px;stroke-linecap:butt;stroke-linejoin:miter;stroke-opacity:1"
       d="m 264.24771,511.39416 c 37.46078,26.77042 163.87923,33.19412 223.9628,-13.36872"
       id="path3867"
       inkscape:connector-curvature="0"
       sodipodi:nodetypes="cc" />
    <path
       style="fill:none;stroke:#000000;stroke-width:1.62204123px;stroke-linecap:butt;stroke-linejoin:miter;stroke-opacity:1"
       d="M 264.5188,511.5493 C 236.19993,496.69715 236.4416,869.71955 236.9769,913.08826"
       id="path3869"
       inkscape:connector-curvature="0"
       sodipodi:nodetypes="cc" />
    <path
       style="fill:none;stroke:#000000;stroke-width:1.62204123px;stroke-linecap:butt;stroke-linejoin:miter;stroke-opacity:1"
       d="m 487.21694,498.86801 c 23.49716,-22.9987 11.37783,373.5316 10.84253,416.90031"
       id="path3869-3"
       inkscape:connector-curvature="0"
       sodipodi:nodetypes="cc" />
    <path
       style="fill:none;stroke:#000000;stroke-width:1.62204123px;stroke-linecap:butt;stroke-linejoin:miter;stroke-opacity:1"
       d="m 262.54234,510.74121 c -91.33877,-50.29294 -216.839334,136.0799 -90.37124,128.74372 13.58396,-0.78798 39.12577,3.63612 47.50955,-5.26237 12.89851,-13.6904 21.23023,-65.77642 31.17214,-85.37347"
       id="path3889"
       inkscape:connector-curvature="0"
       sodipodi:nodetypes="cssc" />
    <path
       style="fill:none;stroke:#000000;stroke-width:1.62204123px;stroke-linecap:butt;stroke-linejoin:miter;stroke-opacity:1"
       d="m 488.9409,498.19516 c 97.24289,-28.98653 212.65518,133.36271 87.35089,133.36271 -10.89313,0 -36.80123,2.11894 -45.185,-6.77955 -12.89852,-13.69039 -21.23023,-65.77642 -31.17214,-85.37347"
       id="path3889-3"
       inkscape:connector-curvature="0"
       sodipodi:nodetypes="cssc" />
    <path
       style="fill:none;stroke:#000000;stroke-width:1px;stroke-linecap:butt;stroke-linejoin:miter;stroke-opacity:1"
       d="m 160.10118,638.65662 -2.29809,184.73165"
       id="path3911"
       inkscape:connector-curvature="0" />
    <path
       style="fill:none;stroke:#000000;stroke-width:1px;stroke-linecap:butt;stroke-linejoin:miter;stroke-opacity:1"
       d="m 188.17722,639.31959 -1.86059,179.04415"
       id="path3911-1"
       inkscape:connector-curvature="0"
       sodipodi:nodetypes="cc" />
    <path
       style="fill:none;stroke:#000000;stroke-width:1px;stroke-linecap:butt;stroke-linejoin:miter;stroke-opacity:1"
       d="m 560.95887,631.20702 -1.86059,179.04415"
       id="path3911-1-9"
       inkscape:connector-curvature="0"
       sodipodi:nodetypes="cc" />
    <path
       style="fill:none;stroke:#000000;stroke-width:1px;stroke-linecap:butt;stroke-linejoin:miter;stroke-opacity:1"
       d="m 589.24314,631.20703 -1.86059,179.04415"
       id="path3911-1-9-9"
       inkscape:connector-curvature="0"
       sodipodi:nodetypes="cc" />
    <path
       style="fill:none;stroke:#000000;stroke-width:1px;stroke-linecap:butt;stroke-linejoin:miter;stroke-opacity:1"
       d="m 236.42183,912.59524 c 70.45038,33.08522 195.39113,35.45623 261.96161,2.79901"
       id="path3967"
       inkscape:connector-curvature="0"
       sodipodi:nodetypes="cc" />
    <path
       style="fill:none;stroke:#000000;stroke-width:1px;stroke-linecap:butt;stroke-linejoin:miter;stroke-opacity:1"
       d="m 236.5192,896.31668 c 54.35218,7.00836 185.68832,35.45623 261.96161,2.79901"
       id="path3967-8"
       inkscape:connector-curvature="0"
       sodipodi:nodetypes="cc" />
    <path
       sodipodi:type="arc"
       style="fill:#000000;fill-opacity:1;fill-rule:evenodd;stroke:#000000;stroke-width:1px;stroke-linecap:butt;stroke-linejoin:miter;stroke-opacity:1"
       id="path3989"
       sodipodi:cx="300.25522"
       sodipodi:cy="221.77689"
       sodipodi:rx="9.9878836"
       sodipodi:ry="9.8111067"
       d="m 310.2431,221.77689 a 9.9878836,9.8111067 0 1 1 -19.97577,0 9.9878836,9.8111067 0 1 1 19.97577,0 z"
       transform="translate(2.4748737,0.88388348)" />
    <path
       sodipodi:type="arc"
       style="fill:#000000;fill-opacity:1;fill-rule:evenodd;stroke:#000000;stroke-width:1px;stroke-linecap:butt;stroke-linejoin:miter;stroke-opacity:1"
       id="path3989-3"
       sodipodi:cx="300.25522"
       sodipodi:cy="221.77689"
       sodipodi:rx="9.9878836"
       sodipodi:ry="9.8111067"
       d="m 310.2431,221.77689 a 9.9878836,9.8111067 0 1 1 -19.97577,0 9.9878836,9.8111067 0 1 1 19.97577,0 z"
       transform="translate(132.31736,2.0329247)" />
    <path
       style="fill:none;stroke:#000000;stroke-width:1px;stroke-linecap:butt;stroke-linejoin:miter;stroke-opacity:1"
       d="m 225.23223,231.46447 c -14.52264,-9.31113 -23.86236,-137.83794 -8.18324,-150.83021 28.10962,-23.292601 51.3429,-0.563103 54.21447,-1.036797 17.91315,-2.95495 14.75601,-23.739175 48.0944,-30.406854 89.33238,-17.866477 73.28308,37.581889 85.22792,14.025126 15.0479,-29.676385 38.39567,-26.519842 41.85356,-10.792893 1.50785,6.857902 -0.68161,6.197071 1.56066,8.43934 2.89234,2.892336 -4.55877,-12.780262 24,-4 11.7304,3.606456 8.48444,18.315476 10.76517,16.088388 1.22692,-1.198076 25.69648,-5.126737 39.23483,8.411612 3.69234,3.692345 -0.38544,15.303584 0.5,16.5 12.42141,16.783868 24.70765,-4.15195 30.5,11.999998 2.90398,8.09773 7.83357,20.76041 5.14214,28.98528 -1.27707,3.90266 -2.46578,9.56685 -5.64214,21.51472 -5.77505,21.72286 -33.01472,32.38167 -42.5,56"
       id="path4013"
       inkscape:connector-curvature="0"
       sodipodi:nodetypes="csssssssssssssc" />
    <path
       style="fill:none;stroke:#000000;stroke-width:1px;stroke-linecap:butt;stroke-linejoin:miter;stroke-opacity:1"
       d="m 230.95875,153.18752 c 20.22997,6.46332 56.32714,-2.45736 72.74361,-16.52862 2.01433,-1.72657 14.213,-10.0447 13.61181,-13.96536 -1.86125,-12.13821 5.17082,-10.30242 8.66205,-9.54594 9.87006,2.13866 25.80291,28.24762 44.54773,31.99658 10.9635,2.1927 24.16591,3.4734 33.94113,-1.41421 1.60555,-0.80277 12.71847,-4.92249 12.72792,-6.71752 0.0468,-8.88563 27.34914,1.82987 44.19418,-5.65685 3.92138,-1.74284 30.62166,-11.45119 31.8198,-10.25305 5.10463,5.10463 14.17709,-0.0126 13.6118,7.33623"
       id="path4017"
       inkscape:connector-curvature="0"
       sodipodi:nodetypes="cssssssssc" />
    <path
       style="fill:#ffda27;fill-opacity:1"
       d="m 223.99956,229.10323 c -8.39275,-11.78652 -15.52906,-67.71463 -14.01037,-109.80078 0.57998,-16.07233 1.94522,-26.125897 4.46087,-32.849572 1.43654,-3.839477 2.40131,-4.929696 7.17084,-8.103229 8.43066,-5.609572 15.02969,-7.599461 23.79389,-7.174873 6.52971,0.316336 10.80759,1.664509 19.40756,6.11629 5.77113,2.987429 6.22183,3.133412 8.1638,2.70061 4.82748,-1.075888 4.01856,-2.585495 15.64052,-11.876772 2.95626,-2.363404 5.9963,-6.414384 7.80258,-7.910452 3.97618,-3.293299 11.74157,-7.20471 17.59198,-8.861044 5.0717,-1.43587 16.87673,-3.490642 24.85175,-4.325675 8.12188,-0.85041 24.01308,-0.343603 29.84463,0.951815 12.28791,2.729635 20.09926,7.796687 26.90322,17.451546 1.5585,2.211518 3.21826,4.168535 3.68835,4.348928 1.48841,0.571154 3.29867,-1.377529 6.40422,-6.893903 5.81425,-10.327831 10.99984,-15.948319 17.73405,-19.221354 3.47309,-1.688032 4.1159,-1.831224 8.26595,-1.841341 5.28638,-0.01289 7.31951,0.825298 10.57886,4.36127 2.37025,2.571425 3.53977,5.727994 3.93098,10.609869 0.43382,5.413582 2.52392,7.036226 3.77701,2.932274 1.13709,-3.724039 2.50756,-4.420466 8.62809,-4.384515 7.89662,0.04639 15.77515,2.471922 18.48332,5.690407 1.50403,1.787428 3.11823,5.881116 3.6087,9.151823 0.47621,3.175608 1.24541,4.179412 2.63339,3.436587 1.77343,-0.949113 9.10962,-1.440074 14.83795,-0.993002 9.98713,0.779453 17.3115,3.667842 22.62123,8.920752 2.09372,2.071323 2.41245,4.418285 1.4549,10.713204 -0.6394,4.203405 -0.65015,5.145685 -0.0713,6.25 1.65009,3.148127 6.51779,6.410907 10.32648,6.921767 1.14102,0.15304 4.76298,-0.13407 8.04881,-0.63803 5.68346,-0.87169 6.05131,-0.87404 7.55792,-0.0483 0.87103,0.47743 1.943,1.36233 2.38215,1.96645 1.23525,1.69928 4.36887,10.46018 5.9892,16.74446 2.17152,8.42199 2.04224,10.45538 -1.54848,24.35524 -3.50499,13.56803 -4.43858,16.44225 -6.56388,20.20807 -2.83336,5.02044 -5.50764,8.18837 -14.38523,17.04064 -15.08991,15.04685 -18.51701,19.06303 -22.33897,26.17878 l -1.57308,2.92877 -0.3204,-3.17877 c -2.50872,-24.89022 -3.10667,-43.51568 -2.61237,-81.37237 0.0512,-3.92544 -0.0251,-4.25234 -1.19525,-5.11227 -0.68844,-0.50597 -2.93467,-1.16637 -5,-1.47003 -2.0625,-0.30324 -4.64839,-1.00884 -5.74642,-1.568 -1.5023,-0.76502 -2.56921,-0.9488 -4.31068,-0.74255 -2.86016,0.33874 -13.97167,3.93844 -25.01776,8.10477 -12.57716,4.74382 -15.03394,5.06933 -31.64587,4.19287 -14.2936,-0.75415 -15.89576,-0.50798 -17.454,2.68171 -0.69454,1.42169 -1.63587,2.25188 -3.78144,3.33496 -4.9608,2.50421 -12.67304,5.5581 -16.04383,6.35304 -4.70269,1.10905 -14.36248,0.98445 -21.86442,-0.28201 -11.88097,-2.00573 -16.43708,-4.80144 -32.35894,-19.85603 -11.81734,-11.17363 -13.89633,-12.6172 -18.81311,-13.06304 -5.90338,-0.5353 -7.45862,1.06776 -7.46166,7.6911 -0.002,3.85346 -0.0887,4.17634 -1.62687,6.04426 -1.69529,2.05869 -6.9191,6.5186 -13.66632,11.66785 -7.13637,5.44622 -19.19647,10.78061 -31.48343,13.92564 -12.91692,3.30629 -27.66691,3.92062 -36.35025,1.51398 l -1.875,-0.51965 0,-6.89744 c 0,-3.7936 -0.14738,-9.97052 -0.32751,-13.7265 -0.26782,-5.58426 -0.46392,-6.82906 -1.07584,-6.82906 -0.64514,0 -0.70201,0.98246 -0.41242,7.125 0.7958,16.87984 0.29907,43.04049 -1.1986,63.125 -0.7357,9.86605 -3.03634,34.96738 -3.22191,35.15296 -0.0851,0.085 -0.63745,-0.52344 -1.22756,-1.35218 z"
       id="path4019"
       inkscape:connector-curvature="0"
       sodipodi:nodetypes="csssssssssssssssssssssssssscsscsssssscsccssssssssssscsssscsssssccc" />
    <path
       style="fill:#000000;fill-opacity:1"
       d="m 335.87001,463.62174 c -15.02299,-2.87088 -27.10799,-10.03561 -35.04144,-20.77473 -7.12176,-9.64036 -11.68477,-24.25052 -12.52386,-40.09976 -0.26767,-5.05582 -0.43433,-9.2796 -0.37036,-9.38618 0.064,-0.10659 2.46862,-0.68528 5.34367,-1.28598 7.36257,-1.5383 23.89589,-1.3708 43.11061,0.43678 22.35195,2.10269 30.0081,2.0017 45.9089,-0.6056 25.07659,-4.11188 49.8022,-5.53419 62.35341,-3.5868 22.04415,3.42027 26.44115,14.19919 12.43201,30.47615 -15.59812,18.12314 -51.14037,36.76887 -82.67184,43.37026 -10.88502,2.27888 -30.38066,3.01531 -38.5411,1.45586 l 0,0 z"
       id="path4023"
       inkscape:connector-curvature="0" />
    <path
       style="fill:#ffc99a;fill-opacity:1"
       d="m 336.25644,529.78409 -5.5,-0.58701 -1.68177,-6.5 c -2.20611,-8.5265 -2.17737,-14.68484 0.11583,-24.82504 1.03548,-4.57877 2.03643,-8.47297 2.22432,-8.65377 0.18789,-0.1808 4.61662,0.46929 9.84162,1.44464 22.59015,4.21691 27.3109,4.43721 43.89934,2.04867 8.38878,-1.20789 15.38745,-2.04278 15.55258,-1.85533 0.16514,0.18746 1.48101,3.79142 2.92417,8.00881 3.07038,8.97268 3.27979,15.04523 0.8046,23.33202 l -1.79214,6 -10.44427,1.156 c -10.78429,1.19363 -46.23943,1.46679 -55.94428,0.43101 z"
       id="path4025"
       inkscape:connector-curvature="0" />
    <path
       style="fill:none;stroke:#000000;stroke-width:1px;stroke-linecap:butt;stroke-linejoin:miter;stroke-opacity:1"
       d="m 153.82322,824.98913 c -0.18335,-0.63417 10.6794,-4.53385 16.55178,-6.00195 4.23314,-1.05828 8.48268,0.61669 13,0.125 4.70675,-0.51231 7.91639,-3.38276 8.5,-0.625 0.42267,1.99727 5.09655,38.70542 3.125,49.75 -0.27361,1.53278 -1.44006,12.30994 5.625,12 0.20833,0.20834 2.5417,-0.20833 2.75,0 0.29786,0.29786 8.6389,-5.8333 11.125,1.625 0.89042,2.67125 -0.55019,4.0502 -2.125,5.625 -1.10766,1.10766 -5.05022,2.07478 -6.375,0.75 -0.10192,-0.10192 -4.62987,-0.99025 -4.75,-0.75 -1.06218,8.24937 -2.26341,15.38934 -7.125,12.875 -0.28211,-0.14591 -2.04896,-5.04895 -2.5,-5.5 -0.72125,-0.72125 0.45418,-6.9375 -0.5625,-5 -0.18367,0.35003 0.092,0.22049 -0.1875,0.5 -2.68604,2.68605 0.21849,8.76576 -4,10.875 -4.27847,2.13924 -5.53338,-12.52487 -5.875,-11.5 -1.35517,4.0655 -2.22606,11.25 -6.75,11.25 -3.49768,0 -4.82268,-8.04085 -4.6875,-9.6875 0.0653,-0.79501 -0.36933,2.24433 -0.9375,2.8125 -0.57115,0.57115 -1.10587,7.85587 -4.25,7.5 -2.04375,-0.23132 -4.76554,-7.81645 -4.625,-9.375 0.23538,-2.61038 -0.53889,-21.03056 -1.125,-23.375 -3.76404,-15.05614 -8.29906,-30.0175 -4.80178,-43.87305 z"
       id="path4031"
       inkscape:connector-curvature="0"
       sodipodi:nodetypes="cssssccssscssscssssssssc" />
    <path
       style="fill:#bb9375;fill-opacity:1;stroke:#000000;stroke-opacity:1"
       d="m 594.25315,814.26891 c -1.7802,-5.23617 -7.97833,-5.57058 -16.375,-4.875 -4.34852,0.36023 -8.35768,-0.13331 -12.875,-0.625 -4.70675,-0.51231 -7.13209,-0.20904 -9.56066,1.6731 -2.63302,2.04057 -4.16089,37.15732 -2.18934,48.2019 0.27361,1.53278 1.44006,12.30994 -5.625,12 -0.20833,0.20834 -2.5417,-0.20833 -2.75,0 -0.29786,0.29786 -8.6389,-5.8333 -11.125,1.625 -0.89042,2.67125 0.55019,4.0502 2.125,5.625 1.10766,1.10766 5.05022,2.07478 6.375,0.75 0.10192,-0.10192 4.62987,-0.99025 4.75,-0.75 1.06218,8.24937 2.26341,15.38934 7.125,12.875 0.28211,-0.14591 2.04896,-5.04895 2.5,-5.5 0.72125,-0.72125 -0.45418,-6.9375 0.5625,-5 0.18367,0.35003 -0.092,0.22049 0.1875,0.5 2.68604,2.68605 -0.21849,8.76576 4,10.875 4.27847,2.13924 5.53338,-12.52487 5.875,-11.5 1.35517,4.0655 2.22606,11.25 6.75,11.25 3.49768,0 4.82268,-8.04085 4.6875,-9.6875 -0.0653,-0.79501 0.36933,2.24433 0.9375,2.8125 0.57115,0.57115 1.10587,7.85587 4.25,7.5 2.04375,-0.23132 4.76554,-7.81645 4.625,-9.375 -0.23538,-2.61038 0.53889,-21.03056 1.125,-23.375 3.76404,-15.05614 9.00617,-31.05606 4.625,-45 z"
       id="path4031-0"
       inkscape:connector-curvature="0"
       sodipodi:nodetypes="cssssccssscssscssssssssc" />
    <path
       style="fill:#ffc99a;fill-opacity:1"
       d="m 159.07363,793.29652 c 0.34805,-15.2625 0.92565,-55.7625 1.28356,-90 l 0.65074,-62.25 12.85734,0 12.85735,0 -8.6e-4,24.75 c -4.8e-4,13.6125 -0.29931,53.4375 -0.66408,88.5 l -0.66323,63.75 -7.67698,0 c -4.22235,0 -9.88601,0.67013 -12.58592,1.48918 -2.69991,0.81904 -5.30984,1.49404 -5.79983,1.5 -0.51507,0.006 -0.62394,-11.69561 -0.25809,-27.73918 l 0,0 z"
       id="path4051"
       inkscape:connector-curvature="0" />
    <path
       style="fill:#ffc99a;fill-opacity:1"
       d="m 563.03724,808.32794 -3.18538,-0.3985 0.44518,-17.69146 c 0.24486,-9.7303 0.72001,-49.07896 1.05591,-87.44146 l 0.61072,-69.75 9.62947,-0.011 c 5.29621,-0.006 11.23273,-0.27626 13.19226,-0.60046 l 3.56277,-0.58946 -0.30455,8.85047 c -0.1675,4.86775 -0.58774,44.73796 -0.93386,88.60046 l -0.62931,79.75 -10.12892,-0.16004 c -5.5709,-0.088 -11.56233,-0.33936 -13.31429,-0.55854 l 0,0 z"
       id="path4053"
       inkscape:connector-curvature="0" />
    <path
       style="fill:#609357;fill-opacity:1"
       d="m 369.72262,912.37538 c -24.74455,-1.76911 -53.65994,-5.39524 -119.75,-15.01723 l -11.25,-1.63788 0.0146,-57.58687 c 0.0289,-114.13943 5.44431,-242.53067 12.00355,-284.58688 4.06623,-26.0717 6.59071,-35.93106 9.98711,-39.00476 1.97805,-1.79011 2.20353,-1.74542 9.41193,1.86539 22.48954,11.26537 52.06791,16.63937 91.58282,16.63937 23.58133,0 40.2134,-1.54613 59.60341,-5.54076 22.77316,-4.69161 46.03804,-13.70854 60.22188,-23.3406 3.33573,-2.26526 6.72064,-4.11864 7.52202,-4.11864 4.20898,0 7.61823,25.97211 9.71364,74 1.98732,45.55015 0.69096,296.98808 -1.64803,319.64823 l -0.5314,5.14824 -10.69076,3.53789 c -23.72185,7.85029 -47.02011,10.71645 -85.19076,10.48023 -14.575,-0.0902 -28.525,-0.30878 -31,-0.48573 l 0,0 z"
       id="path4055"
       inkscape:connector-curvature="0" />
    <path
       style="fill:#609357;fill-opacity:1"
       d="m 552.48338,629.93714 c -21.1062,-1.19762 -24.85563,-5.96492 -36.87901,-46.89062 -7.30561,-24.86716 -13.06626,-42.04165 -14.62409,-43.59948 -0.99189,-0.99189 -1.83722,-4.64946 -2.36261,-10.22252 -1.02459,-10.8683 -3.6311,-25.81629 -4.92236,-28.22902 -1.2694,-2.3719 -0.68062,-2.66448 8.13022,-4.04008 13.39761,-2.09171 32.66692,0.53223 47.73222,6.49978 32.68861,12.94836 62.69455,42.08483 73.7277,71.59132 2.39132,6.3952 2.8142,9.04671 2.8708,18 0.0602,9.5236 -0.18132,10.96495 -2.59723,15.5 -5.06054,9.49943 -13.62425,15.57425 -26.8364,19.03688 -7.80095,2.04447 -29.41931,3.19467 -44.23924,2.35374 l 0,0 z"
       id="path4057"
       inkscape:connector-curvature="0" />
    <path
       style="fill:#bb9375;fill-opacity:1"
       d="m 176.22262,637.99363 c -20.51947,-0.49326 -22.62169,0.65452 -28.51598,-1.38922 -9.65767,-3.34863 -13.83748,-4.67256 -21.20236,-12.25506 -5.65072,-5.81769 -5.90298,-12.54134 -5.9283,-20.053 -0.0355,-10.52204 3.16134,-19.89866 9.43436,-32.84068 12.86318,-26.53837 41.66127,-50.84127 68.34728,-61.52687 19.62282,-7.85735 40.63422,-8.16495 57.19943,-0.83737 4.13458,1.82892 4.34568,2.0996 2.89647,3.71389 -3.04483,3.39167 -6.68639,15.4404 -8.68663,28.7412 -0.57898,3.85 -3.05827,13.3 -5.50954,21 -2.45127,7.7 -6.94933,22.4669 -9.9957,32.81534 -8.70614,29.57456 -14.06753,39.30286 -22.88538,41.52581 -6.28138,1.58352 -10.18215,1.70624 -35.15365,1.10596 z"
       id="path4059"
       inkscape:connector-curvature="0"
       sodipodi:nodetypes="sssssssssssss" />
    <path
       style="fill:#bb9375;fill-opacity:1"
       d="m 550.09406,630.23347 c -9.68313,-1.73918 -11.7036,-1.81123 -16.05912,-5.23992 -6.63505,-5.22316 -8.74469,-12.39179 -20.3252,-49.79244 -4.48659,-14.48997 -9.42195,-29.33997 -10.96747,-33 -1.9014,-4.50279 -3.35083,-10.69655 -4.48247,-19.15459 -1.65491,-12.36914 -2.90359,-19.1853 -4.07278,-22.23217 -1.39506,-3.63546 19.9763,-6.08599 34.5334,-3.30076 39.11043,7.48307 79.58869,38.51465 96.12106,74.15099 3.54607,7.64373 4.74481,11.96332 4.7154,23.45994 -0.0125,4.89424 -0.73313,7.07837 -1.63456,10.23551 l -4.0114,7.65018 c -6.51485,12.42453 -22.63051,15.73855 -44.72444,17.24984 -14.12598,0.96626 -16.42231,0.19088 -26.90695,-0.15515 z"
       id="path4061"
       inkscape:connector-curvature="0"
       sodipodi:nodetypes="csssssssscsscc" />
    <path
       style="fill:#bb9375;fill-opacity:1"
       d="m 354.49269,937.43786 c -1.375,-0.0968 -6.2125,-0.4271 -10.75,-0.73405 -35.93709,-2.43106 -73.64543,-10.62269 -99.88667,-21.69903 l -5.4665,-2.30739 -0.3511,-7.53976 c -0.1931,-4.14687 -0.27252,-7.61834 -0.17647,-7.71438 0.16413,-0.16414 21.0116,2.86607 42.88074,6.23277 13.50025,2.07833 40.93891,5.80713 51.75,7.03262 68.10502,7.72 119.83016,5.3894 155.75,-7.01772 3.9875,-1.37732 7.64375,-2.63341 8.125,-2.7913 0.80632,-0.26455 0.875,0.28231 0.875,6.9668 l 0,7.25387 -4.69787,2.06033 c -21.98676,9.64264 -48.69077,15.88897 -81.55213,19.07584 -8.87349,0.86054 -15.15636,1.09486 -32.5,1.21206 -11.825,0.0799 -22.625,0.0661 -24,-0.0307 l 0,0 z"
       id="path4063"
       inkscape:connector-curvature="0" />
    <path
       style="fill:#bb9375;fill-opacity:1"
       d="m 163.7149,900.39795 c -1.12924,-1.23284 -2.65048,-4.60451 -3.1392,-6.95772 -0.20229,-0.974 -0.30024,-2.87386 -0.36914,-7.15946 -0.0927,-5.76624 -0.47515,-13.40239 -0.8017,-16.00665 -0.0926,-0.73867 -0.80348,-3.88286 -1.57969,-6.9871 -2.42203,-9.68624 -3.53577,-15.02487 -4.20152,-20.13976 -0.40323,-3.09795 -0.4614,-11.43156 -0.0944,-13.52342 0.72724,-4.14516 0.76082,-4.26062 1.34229,-4.61558 1.4234,-0.86889 8.30326,-3.32472 13.34131,-4.76229 3.75051,-1.07018 4.97882,-1.18389 8.68348,-0.80386 5.14614,0.52789 7.23803,0.36714 11.10715,-0.85355 2.05373,-0.64794 2.92717,-0.77267 3.12858,-0.44678 0.24347,0.39395 1.3583,9.32824 2.19375,17.58086 1.45373,14.36005 1.90859,26.66437 1.1763,31.8198 -0.38432,2.70565 -0.30636,6.56844 0.16752,8.30087 0.55037,2.01207 1.52612,3.48197 2.81139,4.23519 1.61289,0.94521 5.63272,1.06006 7.31239,0.20891 1.55077,-0.78584 3.97712,-1.52 5.00946,-1.51577 1.73628,0.007 3.02919,0.88812 3.8225,2.60466 0.64371,1.39282 0.65067,2.73156 0.0192,3.68583 -0.8657,1.30816 -1.99044,2.30071 -3.08667,2.7239 -1.32582,0.51183 -3.30555,0.58252 -3.96304,0.14152 -0.50684,-0.33995 -3.87967,-1.02806 -5.0391,-1.02806 -0.8968,0 -0.74153,-0.41989 -1.3401,3.62392 -1.09786,7.417 -2.65158,10.37779 -5.03494,9.59468 -0.66085,-0.21714 -0.71986,-0.30426 -1.58949,-2.34683 -0.49674,-1.16673 -1.07845,-2.49757 -1.29269,-2.95743 -0.36198,-0.77699 -0.38104,-0.9967 -0.2696,-3.10775 0.11825,-2.23992 0.11403,-2.27714 -0.30267,-2.66557 l -0.4226,-0.39393 -0.35355,0.43945 c -0.66407,0.8254 -1.36611,2.07497 -1.59723,2.84292 -0.12698,0.42194 -0.31904,1.82952 -0.4268,3.12795 -0.25214,3.0382 -0.53893,4.03988 -1.40449,4.90544 -0.37101,0.37101 -0.89337,0.72948 -1.16081,0.7966 -1.62963,0.40901 -2.97275,-2.66822 -4.50609,-10.32392 -0.24977,-1.24705 -0.35571,-1.4002 -0.89701,-1.29673 -0.40444,0.0773 -0.50078,0.28399 -1.04305,2.23775 -1.30552,4.70364 -2.04687,6.52409 -3.15851,7.75603 -1.54498,1.71218 -3.33223,1.60781 -4.52839,-0.26444 -1.02861,-1.61 -2.04888,-5.10522 -2.04888,-7.01901 0,-0.6803 -0.20191,-0.88327 -0.87867,-0.88327 -0.22919,0 -0.35448,0.18726 -0.44354,0.66292 -0.0683,0.3646 -0.38491,1.33908 -0.70366,2.16551 -0.31875,0.82643 -0.71835,2.09922 -0.88801,2.82843 -0.43723,1.87927 -1.3866,3.8185 -2.03303,4.15278 -0.72907,0.37702 -0.85499,0.34572 -1.51701,-0.37704 l 0,0 z"
       id="path4065"
       inkscape:connector-curvature="0" />
    <path
       style="fill:none;stroke:#000000;stroke-width:0;stroke-linecap:butt;stroke-linejoin:miter;stroke-opacity:1;stroke-miterlimit:4;stroke-dasharray:none"
       d="m 366.3697,304.24321 c -20.28891,14.07898 -24.15095,53.4544 10.42983,44.7245"
       id="path4071"
       inkscape:connector-curvature="0"
       sodipodi:nodetypes="cc" />
    <path
       style="fill:none;stroke:#000000;stroke-width:1px;stroke-linecap:butt;stroke-linejoin:miter;stroke-opacity:1"
       d="m 242.5,915.86218 c -5,256.00002 -4.5,288.00002 -4.5,288.00002"
       id="path3111"
       inkscape:connector-curvature="0" />
    <path
       style="fill:none;stroke:#000000;stroke-width:1px;stroke-linecap:butt;stroke-linejoin:miter;stroke-opacity:1"
       d="m 487.75695,918.36217 c 1.36396,256.00003 -1.5,288.75003 -1.5,288.75003"
       id="path3111-3"
       inkscape:connector-curvature="0"
       sodipodi:nodetypes="cc" />
    <path
       style="fill:none;stroke:#000000;stroke-width:1px;stroke-linecap:butt;stroke-linejoin:miter;stroke-opacity:1"
       d="m 237.69064,1203.5528 c 22.25999,-9.7264 36.96891,-2.4748 44.5,-0.75"
       id="path3131"
       inkscape:connector-curvature="0"
       sodipodi:nodetypes="cc" />
    <path
       style="fill:none;stroke:#000000;stroke-width:1px;stroke-linecap:butt;stroke-linejoin:miter;stroke-opacity:1"
       d="m 441.5,1207.3465 c 22.25999,-9.7264 36.96891,-2.4748 44.5,-0.75"
       id="path3131-2"
       inkscape:connector-curvature="0"
       sodipodi:nodetypes="cc" />
    <path
       style="fill:none;stroke:#000000;stroke-width:1px;stroke-linecap:butt;stroke-linejoin:miter;stroke-opacity:1"
       d="m 281.4285,1202.9759 13.78858,-149.5531 70.10408,-72.83196 60.32283,58.90116 16.42091,168.1016"
       id="path3151"
       inkscape:connector-curvature="0"
       sodipodi:nodetypes="ccccc" />
    <path
       style="fill:none;stroke:#000000;stroke-width:1px;stroke-linecap:butt;stroke-linejoin:miter;stroke-opacity:1"
       d="m 252.43712,1199.4404 c 0.48515,12.5492 0.3008,27.6767 0.0503,39.7481"
       id="path3153"
       inkscape:connector-curvature="0"
       sodipodi:nodetypes="cc" />
    <path
       style="fill:none;stroke:#000000;stroke-width:1px;stroke-linecap:butt;stroke-linejoin:miter;stroke-opacity:1"
       d="m 267.63992,1199.7939 c 1.08748,13.8936 0.11929,26.8454 0.0895,38.9767"
       id="path3155"
       inkscape:connector-curvature="0"
       sodipodi:nodetypes="cc" />
    <path
       style="fill:none;stroke:#000000;stroke-width:1px;stroke-linecap:butt;stroke-linejoin:miter;stroke-opacity:1"
       d="m 456.39113,1202.1756 c 0.48515,12.5492 0.3008,27.6767 0.0503,39.7481"
       id="path3153-0"
       inkscape:connector-curvature="0"
       sodipodi:nodetypes="cc" />
    <path
       style="fill:none;stroke:#000000;stroke-width:1px;stroke-linecap:butt;stroke-linejoin:miter;stroke-opacity:1"
       d="m 471.59393,1202.5291 c 1.08748,13.8936 0.11929,26.8454 0.0895,38.9767"
       id="path3155-4"
       inkscape:connector-curvature="0"
       sodipodi:nodetypes="cc" />
    <path
       style="fill:none;stroke:#000000;stroke-width:1px;stroke-linecap:butt;stroke-linejoin:miter;stroke-opacity:1"
       d="m 272.2803,1267.5436 c -0.27002,-8.9112 0.12659,-19.7729 0.13259,-29.4771 -8.1671,3.0294 -17.37594,3.1512 -26.07456,0.088 -0.15839,8.8794 -0.1967,17.3639 -1.14905,26.2071 -0.007,0.8377 -0.22104,2.4302 -0.0884,3.3588"
       id="path3199"
       inkscape:connector-curvature="0"
       sodipodi:nodetypes="ccccc" />
    <path
       sodipodi:type="arc"
       style="fill:#ffffff;fill-opacity:1;fill-rule:evenodd;stroke:#000000;stroke-width:1px;stroke-linecap:butt;stroke-linejoin:miter;stroke-opacity:1"
       id="path3201"
       sodipodi:cx="258.07187"
       sodipodi:cy="1276.2057"
       sodipodi:rx="12.926796"
       sodipodi:ry="8.7062521"
       d="m 270.99866,1276.2057 a 12.926796,8.7062521 0 1 1 -25.85359,0 12.926796,8.7062521 0 1 1 25.85359,0 z"
       transform="matrix(1.2250555,0,0,0.99405445,-57.771127,-1.3836664)" />
    <path
       style="fill:none;stroke:#000000;stroke-width:1px;stroke-linecap:butt;stroke-linejoin:miter;stroke-opacity:1"
       d="m 246.38252,1241.7784 c 7.47002,4.8606 18.36514,5.3979 25.7652,1.9446"
       id="path3971"
       inkscape:connector-curvature="0" />
    <path
       style="fill:none;stroke:#000000;stroke-width:1px;stroke-linecap:butt;stroke-linejoin:miter;stroke-opacity:1"
       d="m 476.64907,1269.1523 c -0.27002,-8.9112 0.12659,-19.7729 0.13259,-29.4771 -8.1671,3.0294 -17.37594,3.1512 -26.07456,0.088 -0.15839,8.8794 -0.1967,17.3639 -1.14905,26.2071 -0.007,0.8377 -0.22104,2.4302 -0.0884,3.3588"
       id="path3199-3"
       inkscape:connector-curvature="0"
       sodipodi:nodetypes="ccccc" />
    <path
       sodipodi:type="arc"
       style="fill:#ffffff;fill-opacity:1;fill-rule:evenodd;stroke:#000000;stroke-width:1px;stroke-linecap:butt;stroke-linejoin:miter;stroke-opacity:1"
       id="path3201-4"
       sodipodi:cx="258.07187"
       sodipodi:cy="1276.2057"
       sodipodi:rx="12.926796"
       sodipodi:ry="8.7062521"
       d="m 270.99866,1276.2057 a 12.926796,8.7062521 0 1 1 -25.85359,0 12.926796,8.7062521 0 1 1 25.85359,0 z"
       transform="matrix(1.2250555,0,0,0.99405445,146.59764,0.22498528)" />
    <path
       style="fill:none;stroke:#000000;stroke-width:1px;stroke-linecap:butt;stroke-linejoin:miter;stroke-opacity:1"
       d="m 450.75129,1243.3871 c 7.47002,4.8606 18.36514,5.3979 25.7652,1.9446"
       id="path3971-5"
       inkscape:connector-curvature="0" />
    <path
       style="fill:#609357;fill-opacity:1;stroke:#000000;stroke-width:0;stroke-miterlimit:4;stroke-opacity:1;stroke-dasharray:none"
       d="m 442.49914,1205.1096 c 0,-0.951 -15.9392,-164.5908 -16.12652,-165.5629 -0.0679,-0.3524 -13.84574,-14.0202 -30.6174,-30.3727 l -30.49392,-29.73199 -1.57429,1.62275 c -0.86587,0.89251 -16.75572,17.40903 -35.31078,36.70334 -33.64542,34.986 -33.7373,35.0872 -34.04023,37.5 -0.16706,1.3307 -3.26558,34.7069 -6.8856,74.1694 -3.62002,39.4625 -6.64487,71.8236 -6.72189,71.9137 -0.077,0.09 -1.79138,-0.2927 -3.8097,-0.8505 -2.01832,-0.5577 -5.69467,-1.3905 -8.16967,-1.8506 -7.96978,-1.4815 -19.62168,-0.3471 -27.60915,2.6879 l -2.49525,0.9481 0.20263,-19.0493 c 0.39381,-37.0221 1.62259,-115.4672 2.986,-190.62477 l 1.38006,-76.07547 2.51786,1.01017 c 65.72303,26.36815 169.51391,29.10512 234.4821,6.1833 3.55534,-1.25438 6.51828,-2.22666 6.58432,-2.16062 0.066,0.066 0.27287,32.18212 0.45963,71.36908 0.42284,88.72501 -0.65556,211.06301 -1.87122,212.27871 -0.15434,0.1543 -2.38579,-0.284 -4.95879,-0.974 -7.20955,-1.9335 -10.64701,-2.4036 -17.46128,-2.3882 -6.42746,0.015 -10.84123,0.8047 -17.44958,3.1236 -3.28415,1.1524 -3.01733,1.1408 -3.01733,0.131 z"
       id="path3997"
       inkscape:connector-curvature="0" />
    <path
       style="fill:#ffc99a;fill-opacity:1;stroke:#000000;stroke-width:0;stroke-miterlimit:4;stroke-opacity:1;stroke-dasharray:none"
       d="m 459.84238,1241.0026 -2.40677,-0.3151 -0.0932,-18.5748 -0.0932,-18.5747 3.00256,-0.1912 c 1.6514,-0.1051 4.71355,-0.1047 6.80477,9e-4 l 3.80223,0.192 0.34826,6.2682 c 0.19155,3.4474 0.18932,11.745 -0.005,18.439 -0.30574,10.5355 -0.46068,12.201 -1.15304,12.3949 -1.59646,0.447 -7.85749,0.6684 -10.2066,0.3608 l 10e-6,0 z"
       id="path4001"
       inkscape:connector-curvature="0" />
    <path
       style="fill:#ffc99a;fill-opacity:1;stroke:#000000;stroke-width:0;stroke-miterlimit:4;stroke-opacity:1;stroke-dasharray:none"
       d="m 253.49801,1239.3627 c -6.2e-4,-0.096 -0.0569,-9.0012 -0.125,-19.7885 l -0.12387,-19.6133 2.0875,-0.3128 c 2.72159,-0.4079 10.96064,-0.081 11.49645,0.4566 0.50302,0.5043 0.44317,38.2222 -0.0615,38.7274 -0.35127,0.3518 -13.27145,0.8682 -13.27363,0.5306 z"
       id="path4003"
       inkscape:connector-curvature="0" />
    <path
       style="fill:#bb9375;fill-opacity:1;stroke:#000000;stroke-width:0;stroke-miterlimit:4;stroke-opacity:1;stroke-dasharray:none"
       d="m 256.84776,1244.9994 c -2.8768,-0.4442 -6.27876,-1.5718 -8.66206,-2.8711 l -1.23744,-0.6746 -0.0517,-1.2552 -0.0516,-1.2553 1.11231,0.3424 c 6.23324,1.9186 13.88114,2.1498 20.33158,0.6146 0.99944,-0.2378 2.16526,-0.5567 2.5907,-0.7087 0.42544,-0.1519 0.8033,-0.2762 0.83969,-0.2762 0.0364,0 0.0662,0.9772 0.0662,2.1716 l 0,2.1715 -1.19325,0.464 c -2.7845,1.0828 -5.71053,1.5612 -9.41335,1.5391 -1.50703,-0.01 -3.45599,-0.127 -4.33103,-0.2621 z"
       id="path4005"
       inkscape:connector-curvature="0" />
    <path
       style="fill:#bb9375;fill-opacity:1;stroke:#000000;stroke-width:0;stroke-miterlimit:4;stroke-opacity:1;stroke-dasharray:none"
       d="m 463.5881,1246.841 c -3.66372,-0.2322 -7.06805,-1.1449 -10.25611,-2.7497 l -2.02987,-1.0217 -0.0517,-1.2696 -0.0517,-1.2696 1.37752,0.4035 c 4.35788,1.2765 6.7271,1.5983 11.54218,1.5675 3.89845,-0.025 7.5602,-0.5705 10.87177,-1.6197 l 1.06066,-0.3361 0.0499,2.1319 c 0.0367,1.567 -0.009,2.1684 -0.17251,2.2694 -0.44172,0.273 -3.44414,1.1959 -4.82712,1.4838 -1.81719,0.3782 -5.14863,0.5602 -7.51301,0.4103 z"
       id="path4007"
       inkscape:connector-curvature="0" />
    <path
       style="fill:#ac937d;fill-opacity:1;stroke:#000000;stroke-width:0;stroke-miterlimit:4;stroke-opacity:1;stroke-dasharray:none"
       d="m 475.52319,1262.9613 c -0.23458,-0.3796 -2.40452,-1.4339 -4.15966,-2.021 -6.30001,-2.1075 -14.66817,-1.6639 -19.77597,1.0483 l -1.13089,0.6005 0.10629,-1.3628 c 0.13521,-1.7337 0.44425,-8.8076 0.58235,-13.3298 l 0.10632,-3.4815 1.52785,0.7731 c 6.46629,3.2719 15.43914,3.8398 22.19073,1.4044 l 1.2261,-0.4423 -0.11656,4.6469 c -0.0641,2.5558 -0.11672,6.3771 -0.11692,8.4917 -3.5e-4,3.5191 -0.087,4.2431 -0.43964,3.6725 l 0,0 z"
       id="path4009"
       inkscape:connector-curvature="0" />
    <path
       style="fill:#ac937d;fill-opacity:1;stroke:#000000;stroke-width:0;stroke-miterlimit:4;stroke-opacity:1;stroke-dasharray:none"
       d="m 460.5829,1276.7493 c -4.74472,-0.4163 -8.6008,-1.8253 -10.95157,-4.0017 -3.49131,-3.2323 -2.39293,-7.0771 2.76362,-9.6739 2.59551,-1.3071 5.62434,-2.014 9.35602,-2.1836 5.7917,-0.2632 11.4356,1.4203 14.31383,4.2696 1.37895,1.3651 1.84538,2.328 1.83833,3.795 -0.0104,2.165 -2.02258,4.4013 -5.32765,5.9208 -3.225,1.4827 -7.98063,2.2258 -11.99258,1.8738 z"
       id="path4011"
       inkscape:connector-curvature="0" />
    <path
       style="fill:#ac937d;fill-opacity:1;stroke:#000000;stroke-width:0;stroke-miterlimit:4;stroke-opacity:1;stroke-dasharray:none"
       d="m 256.40581,1275.1292 c -5.87964,-0.3779 -10.93758,-2.7126 -12.6356,-5.8324 -2.12708,-3.9082 2.26843,-8.2554 9.71879,-9.6122 8.22895,-1.4985 17.27021,1.0964 19.52217,5.603 0.84187,1.6847 0.71485,3.0008 -0.45335,4.6969 -2.38738,3.4664 -9.08287,5.599 -16.15201,5.1447 z"
       id="path4014"
       inkscape:connector-curvature="0" />
    <path
       style="fill:#ac937d;fill-opacity:1;stroke:#000000;stroke-width:0;stroke-miterlimit:4;stroke-opacity:1;stroke-dasharray:none"
       d="m 270.63634,1260.976 c -5.86135,-3.6549 -16.63575,-3.9935 -23.13167,-0.7268 -0.66625,0.335 -1.25139,0.5691 -1.30032,0.5202 -0.0489,-0.049 6.9e-4,-1.4263 0.11027,-3.0608 0.15021,-2.2404 0.50125,-11.7018 0.54112,-14.5844 0.003,-0.2428 0.37735,-0.1203 1.99287,0.6525 2.21493,1.0596 4.63707,1.8295 7.29204,2.3179 1.35674,0.2496 2.58981,0.3226 5.3033,0.3138 3.91094,-0.013 5.70289,-0.2755 8.67872,-1.2736 0.86588,-0.2904 1.58973,-0.5137 1.60856,-0.4963 0.0188,0.017 -0.0209,3.8245 -0.0884,8.4602 l -0.12262,8.4285 -0.88388,-0.5512 0,0 z"
       id="path4016"
       inkscape:connector-curvature="0" />
  </g>
</svg>
